:SAMPLES-PER-SECOND 30
:FULLY-SPECIFIED
:DEGREES
200
root  34.83093442 36.4570858 -14.67223731 13.01759529 16.45908356 5.80700016
lowerback  -8.459670067 4.141210079 4.65089941
upperback  -4.641540051 4.832009792 -5.229810238
thorax  0.7424110174 2.137609959 -7.64467001
lowerneck  -16.04299927 -2.350630045 1.318179965
upperneck  13.11019993 -4.765450001 6.330309868
head  6.782485962 -1.765533328 1.320279598
lclavicle  0 -4.497500157e-015 -2.743230041e-014
lhumerus  -44.38169861 28.08469963 65.46910095
lradius  -0.4204811454 -6.507048965e-006 25.57889938
lwrist  4.824992743e-007 -3.790274832e-007 -35.04449844
lhand  -4.445016664e-031 -37.40129852 -10.5340004
lfingers  90 7.125020027 -90
lthumb  95.01969713 -25.35445091 101.591627
rclavicle  0 -4.497500157e-015 -2.743230041e-014
rhumerus  72.51119995 -4.324380875 -57.4701004
rradius  -5.16745672e-007 2.214343908e-008 38.01440048
rwrist  1.129822067e-006 0.001802438172 -155.3309937
rhand  -1.771415188e-031 4.658800125 -7.983970165
rfingers  -90 -7.125020027 -90
rthumb  -85.24302368 -8.159509052 -59.61601078
rfemur  -15.18428612 8.869106293 14.83834934
rtibia  -4.119644165 2.313171387 25.48901939
rfoot  -3.642234087 -12.7998476 -46.67559814
rtoes  3.850482288 19.64075599 -101.3231474
lfemur  -13.25949478 -23.62724876 -18.78792191
ltibia  3.783471346 3.23237896 14.15364838
lfoot  0.5238623619 -31.07108688 25.91530991
ltoes  -8.651689878 -18.10135479 -116.0923966
201
root  34.83245129 36.45729606 -14.66907141 13.00106049 16.36672783 5.804729462
lowerback  -8.469559669 4.123010159 4.682320118
upperback  -4.645269871 4.804249763 -5.226429939
thorax  0.7414299846 2.122770071 -7.662000179
lowerneck  -16.03549957 -2.327100039 1.347720027
upperneck  13.12339973 -4.742469788 6.330349922
head  6.782488346 -1.753249884 1.317980051
lclavicle  0 -4.497500157e-015 -2.743230041e-014
lhumerus  -44.40110016 28.14769745 65.41719818
lradius  -0.4188600481 -6.507048965e-006 25.60189819
lwrist  4.824992743e-007 -3.790274832e-007 -35.11959839
lhand  -4.44407391e-031 -37.38539886 -10.50319958
lfingers  90 7.125020027 -90
lthumb  95.00541274 -25.32483892 101.5716485
rclavicle  0 -4.497500157e-015 -2.743230041e-014
rhumerus  72.34459686 -4.244309425 -57.78430176
rradius  -5.16745672e-007 2.214343908e-008 38.16429901
rwrist  1.129822067e-006 0.001802438172 -155.4299927
rhand  -1.771241604e-031 4.589379787 -7.989200115
rfingers  -90 -7.125020027 -90
rthumb  -85.26126953 -8.150156773 -59.68400277
rfemur  -15.17849159 9.132201195 14.81640911
rtibia  -4.115771294 2.387905598 25.49445724
rfoot  -3.623755455 -12.63792133 -46.75773239
rtoes  3.835952967 19.64349068 -101.2799239
lfemur  -13.19845009 -23.62014198 -18.82443428
ltibia  3.80455637 3.205691576 14.10138035
lfoot  0.5261737704 -30.99596786 25.97790909
ltoes  -8.656471972 -18.09912799 -116.107789
202
root  34.83468604 36.45705876 -14.66732926 12.97720432 16.26002502 5.781201363
lowerback  -8.499990463 4.104499817 4.662030697
upperback  -4.64741993 4.778880119 -5.203430176
thorax  0.7482479811 2.110150099 -7.626880169
lowerneck  -16.01740074 -2.301650047 1.339339972
upperneck  13.12870026 -4.706910133 6.327453613
head  6.782614231 -1.736417294 1.325345635
lclavicle  0 -4.497500157e-015 -2.743230041e-014
lhumerus  -44.44469833 28.27369881 65.3526001
lradius  -0.4172273278 -6.507048965e-006 25.60879898
lwrist  4.824992743e-007 -3.790274832e-007 -35.18769836
lhand  -4.445230289e-031 -37.4048996 -10.54539967
lfingers  90 7.125020027 -90
lthumb  95.02386042 -25.365418 101.5964714
rclavicle  0 -4.497500157e-015 -2.743230041e-014
rhumerus  72.1155014 -4.175509453 -57.62279892
rradius  -5.16745672e-007 2.214343908e-008 38.41220093
rwrist  1.129822067e-006 0.001802438172 -155.7299957
rhand  -1.771117769e-031 4.539199829 -7.899020195
rfingers  -90 -7.125020027 -90
rthumb  -85.22658851 -8.224488045 -59.72621382
rfemur  -15.1430521 9.174203873 14.80126476
rtibia  -4.089029312 2.356015205 25.42697525
rfoot  -3.594430447 -12.70666218 -46.73550034
rtoes  3.848701829 19.64109169 -101.3178503
lfemur  -13.2099371 -23.63585663 -18.82014084
ltibia  3.784508228 3.164066315 14.16694164
lfoot  0.535202682 -30.94227219 26.06294441
ltoes  -8.680535279 -18.08789938 -116.1852703
203
root  34.83902038 36.45723298 -14.66660387 12.96189404 16.13755417 5.742121696
lowerback  -8.52021122 4.073500156 4.627020359
upperback  -4.6354599 4.739759922 -5.173210144
thorax  0.7602499723 2.092070103 -7.577219963
lowerneck  -15.99349976 -2.249010086 1.309880018
upperneck  13.13640022 -4.625810146 6.327330112
head  6.778679848 -1.699219942 1.335999966
lclavicle  0 -4.497500157e-015 -2.743230041e-014
lhumerus  -44.4673996 28.3743 65.3423996
lradius  -0.4155829549 -6.507048965e-006 25.6364994
lwrist  4.824992743e-007 -3.790274832e-007 -35.14179993
lhand  -4.444791312e-031 -37.39749908 -10.5717001
lfingers  90 7.125020027 -90
lthumb  95.02628886 -25.39151039 101.591122
rclavicle  0 -4.497500157e-015 -2.743230041e-014
rhumerus  71.79019928 -4.033489704 -57.06719971
rradius  -5.16745672e-007 2.214343908e-008 38.8470993
rwrist  1.129822067e-006 0.001802438172 -156.1649933
rhand  -1.771176184e-031 4.562940121 -7.830850124
rfingers  -90 -7.125020027 -90
rthumb  -85.18647568 -8.285030863 -59.69816871
rfemur  -15.11081886 9.156060219 14.79167557
rtibia  -4.047187328 2.31646204 25.33297729
rfoot  -3.554836273 -12.81417465 -46.67078018
rtoes  3.848061017 19.64121247 -101.3159439
lfemur  -13.2452383 -23.58214951 -18.79834747
ltibia  3.758466959 3.146511555 14.24977398
lfoot  0.5332339406 -30.94571877 26.089674
ltoes  -8.694221852 -18.08149539 -116.2293605
204
root  34.84491063 36.45767152 -14.66595958 12.96723557 16.00065613 5.735304832
lowerback  -8.512599945 4.05659008 4.622829914
upperback  -4.632180214 4.717830181 -5.155910015
thorax  0.7541319728 2.081249952 -7.559120178
lowerneck  -15.95530033 -2.217020035 1.314960003
upperneck  13.12469959 -4.584199905 6.338459969
head  6.767499924 -1.679450035 1.343500018
lclavicle  0 -4.497500157e-015 -2.743230041e-014
lhumerus  -44.46509933 28.34550095 65.36569977
lradius  -0.4139037728 -6.507048965e-006 25.66329956
lwrist  4.824992743e-007 -3.790274832e-007 -35.08480072
lhand  -4.443759899e-031 -37.38010025 -10.67660046
lfingers  90 7.125020027 -90
lthumb  95.04148128 -25.49496238 101.5825369
rclavicle  0 -4.497500157e-015 -2.743230041e-014
rhumerus  71.4076004 -3.926919937 -56.51720047
rradius  -5.16745672e-007 2.214343908e-008 39.34809875
rwrist  1.129822067e-006 0.001802438172 -156.602005
rhand  -1.771144798e-031 4.550199986 -7.837039948
rfingers  -90 -7.125020027 -90
rthumb  -85.19252728 -8.278801078 -59.71107006
rfemur  -15.13327694 9.240559578 14.75352478
rtibia  -4.028990746 2.310976505 25.32248688
rfoot  -3.546042681 -12.83557129 -46.64061737
rtoes  3.864937867 19.63802448 -101.3661572
lfemur  -13.2387085 -23.56790924 -18.8203373
ltibia  3.765081406 3.115248919 14.23943806
lfoot  0.5422177911 -30.86793709 26.18597412
ltoes  -8.70148305 -18.0780927 -116.2527579
205
root  34.86201669 36.46059412 -14.67317296 13.00296879 15.74914742 5.705884933
lowerback  -8.478579521 4.04046011 4.47383976
upperback  -4.620560169 4.70909977 -5.089260101
thorax  0.729591012 2.079590082 -7.404230118
lowerneck  -15.93610001 -2.175220013 1.302839994
upperneck  13.13119984 -4.519169807 6.314680099
head  6.769302368 -1.650439978 1.344939947
lclavicle  0 -4.497500157e-015 -2.743230041e-014
lhumerus  -44.51800156 28.38739967 65.38030243
lradius  -0.412189424 -6.507048965e-006 25.71920204
lwrist  4.824992743e-007 -3.790274832e-007 -35.15100098
lhand  -4.443244412e-031 -37.37139893 -10.65170002
lfingers  90 7.125020027 -90
lthumb  95.03184661 -25.47081639 101.5708381
rclavicle  0 -4.497500157e-015 -2.743230041e-014
rhumerus  71.02870178 -3.771849871 -55.94839859
rradius  -5.16745672e-007 2.214343908e-008 39.88669968
rwrist  1.129822067e-006 0.001802438172 -157.2680054
rhand  -1.771120469e-031 4.540299892 -7.838359833
rfingers  -90 -7.125020027 -90
rthumb  -85.19541795 -8.276999402 -59.72075502
rfemur  -15.24505711 9.395184517 14.68400002
rtibia  -4.014426708 2.25593257 25.33239555
rfoot  -3.548844337 -12.94375134 -46.59362793
rtoes  3.858493733 19.63924348 -101.3469832
lfemur  -13.36262131 -23.48172569 -18.80212784
ltibia  3.727977276 3.106005192 14.35415745
lfoot  0.5829419494 -30.88047409 26.34484482
ltoes  -8.672365207 -18.09171615 -116.1589583
206
root  34.87061027 36.46272074 -14.67503826 13.00430202 15.57896709 5.658351898
lowerback  -8.441020012 4.014140129 4.368609428
upperback  -4.633639812 4.680130005 -5.061840057
thorax  0.6805869937 2.063960075 -7.320230007
lowerneck  -15.92529964 -2.130290031 1.370270014
upperneck  13.17010021 -4.46449995 6.247459888
head  6.775984287 -1.625429988 1.318230033
lclavicle  0 -4.497500157e-015 -2.743230041e-014
lhumerus  -44.53120041 28.24290085 65.47019958
lradius  -0.4104633629 -6.507048965e-006 25.78020096
lwrist  4.824992743e-007 -3.790274832e-007 -34.99440002
lhand  -4.442054512e-031 -37.35129929 -10.63700008
lfingers  90 7.125020027 -90
lthumb  95.01920659 -25.45712614 101.5480451
rclavicle  0 -4.497500157e-015 -2.743230041e-014
rhumerus  70.65010071 -3.707388878 -55.78219986
rradius  -5.16745672e-007 2.214343908e-008 40.35469818
rwrist  1.129822067e-006 0.001802438172 -157.9210052
rhand  -1.77126677e-031 4.599510193 -7.897389889
rfingers  -90 -7.125020027 -90
rthumb  -85.21218537 -8.230057354 -59.66744354
rfemur  -15.27888203 9.472980499 14.66034222
rtibia  -3.979054689 2.251885653 25.29298782
rfoot  -3.515371799 -12.99246693 -46.51622772
rtoes  3.844962846 19.64179612 -101.3067268
lfemur  -13.38218975 -23.40623093 -18.77618599
ltibia  3.720436573 3.112283945 14.38370514
lfoot  0.625094533 -30.90047073 26.49720001
ltoes  -8.668909332 -18.09332925 -116.1478302
